<?xml version="1.0" standalone="no"?><!DOCTYPE svg PUBLIC "-//W3C//DTD SVG 1.1//EN" "http://www.w3.org/Graphics/SVG/1.1/DTD/svg11.dtd"><svg t="1650442087228" class="icon" viewBox="0 0 1024 1024" version="1.1" xmlns="http://www.w3.org/2000/svg" p-id="2845" xmlns:xlink="http://www.w3.org/1999/xlink" width="200" height="200"><defs><style type="text/css">@font-face { font-family: feedback-iconfont; src: url("//at.alicdn.com/t/font_1031158_u69w8yhxdu.woff2?t=1630033759944") format("woff2"), url("//at.alicdn.com/t/font_1031158_u69w8yhxdu.woff?t=1630033759944") format("woff"), url("//at.alicdn.com/t/font_1031158_u69w8yhxdu.ttf?t=1630033759944") format("truetype"); }
</style></defs><path d="M881.92 812.8H138.24C66.56 812.8 8.96 755.2 8.96 683.52v-512C8.96 99.84 66.56 42.24 138.24 42.24h743.68C953.6 42.24 1011.2 101.12 1011.2 171.52v510.72c0 71.68-57.6 130.56-129.28 130.56zM138.24 107.52c-35.84 0-65.28 29.44-65.28 65.28v510.72c0 35.84 29.44 65.28 65.28 65.28h743.68c35.84 0 65.28-29.44 65.28-65.28v-512c0-35.84-29.44-65.28-65.28-65.28H138.24zM847.36 999.68H179.2c-28.16 0-44.8-29.44-32-53.76L179.2 883.2c6.4-11.52 19.2-19.2 32-19.2h602.88c14.08 0 25.6 7.68 32 19.2l33.28 62.72c12.8 24.32-5.12 53.76-32 53.76z" p-id="2846" fill="#8a8a8a"></path><path d="M409.6 785.92h200.96v154.88H409.6z" p-id="2847" fill="#8a8a8a"></path></svg>